<mxfile host="app.diagrams.net" agent="Mozilla/5.0 (Windows NT 10.0; Win64; x64) AppleWebKit/537.36 (KHTML, like Gecko) Chrome/141.0.0.0 Safari/537.36" version="28.2.5">
  <diagram name="Sandbox-Backstage-Architecture" id="sandbox-backstage-arch">
    <mxGraphModel dx="1453" dy="775" grid="1" gridSize="10" guides="1" tooltips="1" connect="1" arrows="1" fold="1" page="1" pageScale="1" pageWidth="1600" pageHeight="900" math="0" shadow="0">
      <root>
        <mxCell id="0" />
        <mxCell id="1" parent="0" />
        <mxCell id="github-container" value="" style="rounded=1;whiteSpace=wrap;html=1;fillColor=#f5f5f5;strokeColor=#666666;dashed=1;" parent="1" vertex="1">
          <mxGeometry x="40" y="40" width="340" height="240" as="geometry" />
        </mxCell>
        <mxCell id="github-label" value="GitHub Repository" style="text;html=1;strokeColor=none;fillColor=none;align=center;verticalAlign=middle;whiteSpace=wrap;rounded=0;fontSize=14;fontStyle=1" parent="1" vertex="1">
          <mxGeometry x="40" y="45" width="140" height="20" as="geometry" />
        </mxCell>
        <mxCell id="cicd-container" value="" style="rounded=1;whiteSpace=wrap;html=1;fillColor=#e1f5e1;strokeColor=#82b366;dashed=1;" parent="1" vertex="1">
          <mxGeometry x="420" y="40" width="340" height="240" as="geometry" />
        </mxCell>
        <mxCell id="cicd-label" value="CI/CD Pipeline" style="text;html=1;strokeColor=none;fillColor=none;align=center;verticalAlign=middle;whiteSpace=wrap;rounded=0;fontSize=14;fontStyle=1" parent="1" vertex="1">
          <mxGeometry x="420" y="45" width="140" height="20" as="geometry" />
        </mxCell>
        <mxCell id="k8s-container" value="" style="rounded=1;whiteSpace=wrap;html=1;fillColor=#e3f2fd;strokeColor=#6c8ebf;dashed=1;" parent="1" vertex="1">
          <mxGeometry x="40" y="320" width="1520" height="350" as="geometry" />
        </mxCell>
        <mxCell id="k8s-label" value="Kubernetes Cluster" style="text;html=1;strokeColor=none;fillColor=none;align=center;verticalAlign=middle;whiteSpace=wrap;rounded=0;fontSize=16;fontStyle=1" parent="1" vertex="1">
          <mxGeometry x="40" y="325" width="160" height="25" as="geometry" />
        </mxCell>
        <mxCell id="config-file" value="environments.yaml&#xa;&#xa;- name: gustavo&#xa;- name: mateus&#xa;- name: hml" style="shape=document;whiteSpace=wrap;html=1;boundedLbl=1;fillColor=#fff2cc;strokeColor=#d6b656;" parent="1" vertex="1">
          <mxGeometry x="80" y="90" width="120" height="100" as="geometry" />
        </mxCell>
        <mxCell id="backstage-catalog" value="Backstage&#xa;Catalog" style="rounded=1;whiteSpace=wrap;html=1;fillColor=#dae8fc;strokeColor=#6c8ebf;" parent="1" vertex="1">
          <mxGeometry x="230" y="110" width="100" height="60" as="geometry" />
        </mxCell>
        <mxCell id="github-actions" value="GitHub Actions&#xa;Workflow" style="shape=hexagon;perimeter=hexagonPerimeter2;whiteSpace=wrap;html=1;fixedSize=1;fillColor=#d5e8d4;strokeColor=#82b366;" parent="1" vertex="1">
          <mxGeometry x="460" y="100" width="120" height="80" as="geometry" />
        </mxCell>
        <mxCell id="action-steps" value="1. Parse Config&#xa;2. Create Namespace&#xa;3. Deploy App&#xa;4. Setup Database&#xa;5. Configure Istio" style="rounded=0;whiteSpace=wrap;html=1;fillColor=#ffffff;strokeColor=#666666;align=left;" parent="1" vertex="1">
          <mxGeometry x="610" y="90" width="130" height="100" as="geometry" />
        </mxCell>
        <mxCell id="Syd5sQCKqKPeawgjvQPr-1" style="edgeStyle=orthogonalEdgeStyle;rounded=0;orthogonalLoop=1;jettySize=auto;html=1;" edge="1" parent="1" source="istio-gateway" target="virtual-service">
          <mxGeometry relative="1" as="geometry" />
        </mxCell>
        <mxCell id="istio-gateway" value="Istio Ingress Gateway" style="rounded=1;whiteSpace=wrap;html=1;fillColor=#f8cecc;strokeColor=#b85450;" parent="1" vertex="1">
          <mxGeometry x="1170" y="370" width="160" height="60" as="geometry" />
        </mxCell>
        <mxCell id="virtual-service" value="Virtual Service&#xa;Routing Rules&#xa;&#xa;/bex-gustavo → ns: bex-gustavo&#xa;/bex-mateus → ns: bex-mateus&#xa;/bex-hml → ns: bex-hml" style="rounded=0;whiteSpace=wrap;html=1;fillColor=#ffe6cc;strokeColor=#d79b00;align=left;" parent="1" vertex="1">
          <mxGeometry x="870" y="360" width="200" height="80" as="geometry" />
        </mxCell>
        <mxCell id="ns-gustavo-container" value="" style="rounded=1;whiteSpace=wrap;html=1;fillColor=#f5f5f5;strokeColor=#666666;dashed=1;" parent="1" vertex="1">
          <mxGeometry x="80" y="480" width="420" height="150" as="geometry" />
        </mxCell>
        <mxCell id="ns-gustavo-label" value="Namespace: bex-gustavo" style="text;html=1;strokeColor=none;fillColor=none;align=center;verticalAlign=middle;whiteSpace=wrap;rounded=0;fontSize=14;fontStyle=1" parent="1" vertex="1">
          <mxGeometry x="80" y="485" width="180" height="20" as="geometry" />
        </mxCell>
        <mxCell id="gustavo-app" value="Application&#xa;Pod" style="rounded=1;whiteSpace=wrap;html=1;fillColor=#dae8fc;strokeColor=#6c8ebf;" parent="1" vertex="1">
          <mxGeometry x="120" y="530" width="100" height="60" as="geometry" />
        </mxCell>
        <mxCell id="gustavo-service" value="Service" style="ellipse;whiteSpace=wrap;html=1;fillColor=#e1d5e7;strokeColor=#9673a6;" parent="1" vertex="1">
          <mxGeometry x="250" y="535" width="80" height="50" as="geometry" />
        </mxCell>
        <mxCell id="gustavo-db" value="PostgreSQL&#xa;Database" style="shape=cylinder3;whiteSpace=wrap;html=1;boundedLbl=1;backgroundOutline=1;size=15;fillColor=#f5f5f5;strokeColor=#666666;" parent="1" vertex="1">
          <mxGeometry x="360" y="520" width="100" height="80" as="geometry" />
        </mxCell>
        <mxCell id="ns-mateus-container" value="" style="rounded=1;whiteSpace=wrap;html=1;fillColor=#f5f5f5;strokeColor=#666666;dashed=1;" parent="1" vertex="1">
          <mxGeometry x="540" y="480" width="420" height="150" as="geometry" />
        </mxCell>
        <mxCell id="ns-mateus-label" value="Namespace: bex-mateus" style="text;html=1;strokeColor=none;fillColor=none;align=center;verticalAlign=middle;whiteSpace=wrap;rounded=0;fontSize=14;fontStyle=1" parent="1" vertex="1">
          <mxGeometry x="540" y="485" width="180" height="20" as="geometry" />
        </mxCell>
        <mxCell id="mateus-app" value="Application&#xa;Pod" style="rounded=1;whiteSpace=wrap;html=1;fillColor=#dae8fc;strokeColor=#6c8ebf;" parent="1" vertex="1">
          <mxGeometry x="580" y="530" width="100" height="60" as="geometry" />
        </mxCell>
        <mxCell id="mateus-service" value="Service" style="ellipse;whiteSpace=wrap;html=1;fillColor=#e1d5e7;strokeColor=#9673a6;" parent="1" vertex="1">
          <mxGeometry x="710" y="535" width="80" height="50" as="geometry" />
        </mxCell>
        <mxCell id="mateus-db" value="PostgreSQL&#xa;Database" style="shape=cylinder3;whiteSpace=wrap;html=1;boundedLbl=1;backgroundOutline=1;size=15;fillColor=#f5f5f5;strokeColor=#666666;" parent="1" vertex="1">
          <mxGeometry x="820" y="520" width="100" height="80" as="geometry" />
        </mxCell>
        <mxCell id="ns-hml-container" value="" style="rounded=1;whiteSpace=wrap;html=1;fillColor=#f5f5f5;strokeColor=#666666;dashed=1;" parent="1" vertex="1">
          <mxGeometry x="1000" y="480" width="420" height="150" as="geometry" />
        </mxCell>
        <mxCell id="ns-hml-label" value="Namespace: bex-hml" style="text;html=1;strokeColor=none;fillColor=none;align=center;verticalAlign=middle;whiteSpace=wrap;rounded=0;fontSize=14;fontStyle=1" parent="1" vertex="1">
          <mxGeometry x="1000" y="485" width="180" height="20" as="geometry" />
        </mxCell>
        <mxCell id="hml-app" value="Application&#xa;Pod" style="rounded=1;whiteSpace=wrap;html=1;fillColor=#dae8fc;strokeColor=#6c8ebf;" parent="1" vertex="1">
          <mxGeometry x="1040" y="530" width="100" height="60" as="geometry" />
        </mxCell>
        <mxCell id="hml-service" value="Service" style="ellipse;whiteSpace=wrap;html=1;fillColor=#e1d5e7;strokeColor=#9673a6;" parent="1" vertex="1">
          <mxGeometry x="1170" y="535" width="80" height="50" as="geometry" />
        </mxCell>
        <mxCell id="hml-db" value="PostgreSQL&#xa;Database" style="shape=cylinder3;whiteSpace=wrap;html=1;boundedLbl=1;backgroundOutline=1;size=15;fillColor=#f5f5f5;strokeColor=#666666;" parent="1" vertex="1">
          <mxGeometry x="1280" y="520" width="100" height="80" as="geometry" />
        </mxCell>
        <mxCell id="arrow1" value="" style="endArrow=classic;html=1;rounded=0;exitX=1;exitY=0.5;exitDx=0;exitDy=0;entryX=0;entryY=0.5;entryDx=0;entryDy=0;" parent="1" source="config-file" target="backstage-catalog" edge="1">
          <mxGeometry width="50" height="50" relative="1" as="geometry">
            <mxPoint x="400" y="300" as="sourcePoint" />
            <mxPoint x="450" y="250" as="targetPoint" />
          </mxGeometry>
        </mxCell>
        <mxCell id="arrow2" value="Trigger" style="endArrow=classic;html=1;rounded=0;exitX=1;exitY=0.5;exitDx=0;exitDy=0;entryX=0;entryY=0.5;entryDx=0;entryDy=0;" parent="1" source="backstage-catalog" target="github-actions" edge="1">
          <mxGeometry width="50" height="50" relative="1" as="geometry">
            <mxPoint x="400" y="300" as="sourcePoint" />
            <mxPoint x="450" y="250" as="targetPoint" />
          </mxGeometry>
        </mxCell>
        <mxCell id="arrow3" value="" style="endArrow=classic;html=1;rounded=0;exitX=1;exitY=0.5;exitDx=0;exitDy=0;entryX=0;entryY=0.5;entryDx=0;entryDy=0;" parent="1" source="github-actions" target="action-steps" edge="1">
          <mxGeometry width="50" height="50" relative="1" as="geometry">
            <mxPoint x="400" y="300" as="sourcePoint" />
            <mxPoint x="450" y="250" as="targetPoint" />
          </mxGeometry>
        </mxCell>
        <mxCell id="arrow4" value="Deploy" style="endArrow=classic;html=1;rounded=0;exitX=0.5;exitY=1;exitDx=0;exitDy=0;entryX=0.5;entryY=0;entryDx=0;entryDy=0;strokeWidth=2;strokeColor=#FF0000;" parent="1" source="action-steps" target="k8s-container" edge="1">
          <mxGeometry width="50" height="50" relative="1" as="geometry">
            <mxPoint x="400" y="300" as="sourcePoint" />
            <mxPoint x="450" y="250" as="targetPoint" />
          </mxGeometry>
        </mxCell>
        <mxCell id="arrow7" value="/bex-gustavo" style="endArrow=classic;html=1;rounded=0;exitX=0.25;exitY=1;exitDx=0;exitDy=0;entryX=0.5;entryY=0;entryDx=0;entryDy=0;strokeColor=#0000FF;" parent="1" source="virtual-service" target="ns-gustavo-container" edge="1">
          <mxGeometry width="50" height="50" relative="1" as="geometry">
            <mxPoint x="400" y="500" as="sourcePoint" />
            <mxPoint x="450" y="450" as="targetPoint" />
          </mxGeometry>
        </mxCell>
        <mxCell id="arrow8" value="/bex-mateus" style="endArrow=classic;html=1;rounded=0;exitX=0.5;exitY=1;exitDx=0;exitDy=0;entryX=0.5;entryY=0;entryDx=0;entryDy=0;strokeColor=#00FF00;" parent="1" source="virtual-service" target="ns-mateus-container" edge="1">
          <mxGeometry width="50" height="50" relative="1" as="geometry">
            <mxPoint x="400" y="500" as="sourcePoint" />
            <mxPoint x="450" y="450" as="targetPoint" />
          </mxGeometry>
        </mxCell>
        <mxCell id="arrow9" value="/bex-hml" style="endArrow=classic;html=1;rounded=0;exitX=0.75;exitY=1;exitDx=0;exitDy=0;entryX=0.5;entryY=0;entryDx=0;entryDy=0;strokeColor=#FF00FF;" parent="1" source="virtual-service" target="ns-hml-container" edge="1">
          <mxGeometry width="50" height="50" relative="1" as="geometry">
            <mxPoint x="400" y="500" as="sourcePoint" />
            <mxPoint x="450" y="450" as="targetPoint" />
          </mxGeometry>
        </mxCell>
        <mxCell id="gustavo-arrow1" value="" style="endArrow=classic;html=1;rounded=0;exitX=1;exitY=0.5;exitDx=0;exitDy=0;entryX=0;entryY=0.5;entryDx=0;entryDy=0;" parent="1" source="gustavo-app" target="gustavo-service" edge="1">
          <mxGeometry width="50" height="50" relative="1" as="geometry">
            <mxPoint x="200" y="600" as="sourcePoint" />
            <mxPoint x="250" y="550" as="targetPoint" />
          </mxGeometry>
        </mxCell>
        <mxCell id="gustavo-arrow2" value="" style="endArrow=classic;html=1;rounded=0;exitX=1;exitY=0.5;exitDx=0;exitDy=0;entryX=0;entryY=0.5;entryDx=0;entryDy=0;" parent="1" source="gustavo-service" target="gustavo-db" edge="1">
          <mxGeometry width="50" height="50" relative="1" as="geometry">
            <mxPoint x="200" y="600" as="sourcePoint" />
            <mxPoint x="250" y="550" as="targetPoint" />
          </mxGeometry>
        </mxCell>
        <mxCell id="mateus-arrow1" value="" style="endArrow=classic;html=1;rounded=0;exitX=1;exitY=0.5;exitDx=0;exitDy=0;entryX=0;entryY=0.5;entryDx=0;entryDy=0;" parent="1" source="mateus-app" target="mateus-service" edge="1">
          <mxGeometry width="50" height="50" relative="1" as="geometry">
            <mxPoint x="660" y="600" as="sourcePoint" />
            <mxPoint x="710" y="550" as="targetPoint" />
          </mxGeometry>
        </mxCell>
        <mxCell id="mateus-arrow2" value="" style="endArrow=classic;html=1;rounded=0;exitX=1;exitY=0.5;exitDx=0;exitDy=0;entryX=0;entryY=0.5;entryDx=0;entryDy=0;" parent="1" source="mateus-service" target="mateus-db" edge="1">
          <mxGeometry width="50" height="50" relative="1" as="geometry">
            <mxPoint x="660" y="600" as="sourcePoint" />
            <mxPoint x="710" y="550" as="targetPoint" />
          </mxGeometry>
        </mxCell>
        <mxCell id="hml-arrow1" value="" style="endArrow=classic;html=1;rounded=0;exitX=1;exitY=0.5;exitDx=0;exitDy=0;entryX=0;entryY=0.5;entryDx=0;entryDy=0;" parent="1" source="hml-app" target="hml-service" edge="1">
          <mxGeometry width="50" height="50" relative="1" as="geometry">
            <mxPoint x="1120" y="600" as="sourcePoint" />
            <mxPoint x="1170" y="550" as="targetPoint" />
          </mxGeometry>
        </mxCell>
        <mxCell id="hml-arrow2" value="" style="endArrow=classic;html=1;rounded=0;exitX=1;exitY=0.5;exitDx=0;exitDy=0;entryX=0;entryY=0.5;entryDx=0;entryDy=0;" parent="1" source="hml-service" target="hml-db" edge="1">
          <mxGeometry width="50" height="50" relative="1" as="geometry">
            <mxPoint x="1120" y="600" as="sourcePoint" />
            <mxPoint x="1170" y="550" as="targetPoint" />
          </mxGeometry>
        </mxCell>
        <mxCell id="external-user" value="External&#xa;User" style="shape=actor;whiteSpace=wrap;html=1;fillColor=#dae8fc;strokeColor=#6c8ebf;" parent="1" vertex="1">
          <mxGeometry x="1710" y="370" width="60" height="60" as="geometry" />
        </mxCell>
        <mxCell id="user-arrow" value="HTTPS Request" style="endArrow=classic;html=1;rounded=0;exitX=0;exitY=0.5;exitDx=0;exitDy=0;entryX=1;entryY=0.5;entryDx=0;entryDy=0;strokeWidth=2;" parent="1" source="external-user" target="istio-gateway" edge="1">
          <mxGeometry width="50" height="50" relative="1" as="geometry">
            <mxPoint x="1200" y="400" as="sourcePoint" />
            <mxPoint x="1250" y="350" as="targetPoint" />
          </mxGeometry>
        </mxCell>
        <mxCell id="notes" value="Notas:&#xa;• Cada namespace é isolada&#xa;• Cada ambiente tem seu próprio banco de dados&#xa;• Roteamento baseado em path do Istio&#xa;• Escalonamento automático com HPA&#xa;• Secrets gerenciados pelo Vault&#xa;• Deploy automatizado via GitHub Actions&#xa;• GitOps com ArgoCD (opcional)&#xa;• Monitoramento com Prometheus/Grafana" style="text;html=1;strokeColor=none;fillColor=none;align=left;verticalAlign=top;whiteSpace=wrap;rounded=0;fontSize=11;" parent="1" vertex="1">
          <mxGeometry x="1580" y="560" width="260" height="140" as="geometry" />
        </mxCell>
      </root>
    </mxGraphModel>
  </diagram>
</mxfile>
